<svg version="1.1" id="Layer_1" xmlns="http://www.w3.org/2000/svg" xmlns:xlink="http://www.w3.org/1999/xlink" x="0px" y="0px"
	 width="100%" viewBox="0 0 1920 1080" enable-background="new 0 0 1920 1080" xml:space="preserve">
<path fill="#FFFFFF" opacity="1.000000" stroke="none" 
	d="
M1452.000000,1081.000000 
	C968.000061,1081.000000 484.500183,1081.000000 1.000195,1081.000000 
	C1.000130,721.000122 1.000130,361.000305 1.000065,1.000340 
	C640.999695,1.000226 1280.999390,1.000226 1920.999268,1.000113 
	C1920.999512,360.999664 1920.999512,720.999329 1920.999756,1080.999512 
	C1764.833374,1081.000000 1608.666626,1081.000000 1452.000000,1081.000000 
M1343.011230,874.528015 
	C1346.984619,870.265198 1350.887329,865.933960 1354.942749,861.750671 
	C1379.991943,835.911926 1405.408936,810.419373 1430.034424,784.183716 
	C1447.403320,765.679077 1462.251587,745.088562 1474.034180,722.536072 
	C1505.663086,661.996460 1517.979858,596.642578 1520.567261,529.169800 
	C1521.414062,507.087189 1520.042480,484.888153 1519.008545,462.773987 
	C1518.061035,442.507141 1516.327393,422.272858 1514.711792,402.042480 
	C1512.620117,375.850464 1510.175659,349.686462 1508.118042,323.491943 
	C1506.177002,298.781250 1504.691406,274.034637 1502.731934,249.325500 
	C1500.312866,218.820450 1497.419800,188.352325 1495.103149,157.840027 
	C1493.724854,139.685043 1486.397339,124.808762 1472.101685,113.655411 
	C1458.053467,102.694908 1442.115845,96.629501 1424.146240,99.667511 
	C1399.550537,103.825768 1383.476685,118.467422 1376.145752,142.243149 
	C1373.477661,150.896683 1372.004150,159.918564 1369.935425,168.992096 
	C1348.580566,168.797150 1329.867065,176.133224 1315.148193,191.883835 
	C1300.341797,207.728027 1294.874756,226.959763 1298.110962,247.575104 
	C1288.542603,250.287659 1279.485596,252.003342 1271.104614,255.391144 
	C1246.059326,265.515076 1231.583740,286.104340 1232.410278,310.537964 
	C1233.118774,331.480560 1233.913452,352.479889 1236.146118,373.295868 
	C1238.837646,398.391632 1243.331787,423.288910 1246.547363,448.336090 
	C1247.924683,459.063751 1256.430054,463.702728 1266.139771,462.973846 
	C1276.193970,462.219086 1283.667725,455.162628 1282.737793,446.620178 
	C1280.507690,426.132355 1278.036011,405.667694 1275.384888,385.229584 
	C1272.085571,359.795715 1269.089233,334.353821 1270.034058,308.634766 
	C1270.261475,302.443634 1272.737549,297.416931 1278.188477,294.041412 
	C1285.328979,289.619690 1293.244629,288.407196 1301.841797,287.721344 
	C1302.579712,292.852173 1303.570923,297.568054 1303.890747,302.328979 
	C1305.685669,329.054901 1306.944336,355.822693 1309.157837,382.512177 
	C1310.350220,396.888550 1313.034912,411.144470 1315.194824,425.432281 
	C1315.424072,426.949066 1316.356323,428.618958 1317.467285,429.698242 
	C1322.272339,434.366333 1332.292603,435.280945 1339.103394,431.897217 
	C1346.749512,428.098450 1350.572632,421.210602 1349.949219,413.300171 
	C1348.185791,390.922394 1346.613159,368.529663 1344.925293,346.145813 
	C1343.874634,332.212189 1342.626831,318.292419 1341.688110,304.351562 
	C1339.978271,278.953796 1338.436279,253.544754 1336.815186,228.140991 
	C1336.487549,223.006805 1338.666504,219.051941 1342.709351,216.150177 
	C1351.312378,209.975372 1361.394287,209.115158 1372.176514,207.752945 
	C1372.176514,217.348938 1372.186279,226.303604 1372.174805,235.258255 
	C1372.099609,294.424133 1371.951538,353.590118 1372.039185,412.755737 
	C1372.048584,419.167725 1372.724243,425.755920 1374.325195,431.942963 
	C1376.268921,439.454407 1382.352051,442.508331 1389.874268,442.915100 
	C1397.243896,443.313599 1403.553711,440.955048 1405.951050,433.763092 
	C1408.119629,427.257721 1409.646606,420.201385 1409.687988,413.377319 
	C1410.026733,357.546417 1409.875977,301.712830 1410.033203,245.880493 
	C1410.110107,218.557983 1410.415161,191.234421 1410.912231,163.916733 
	C1410.982056,160.081787 1411.990723,155.847992 1413.877075,152.549240 
	C1417.719971,145.829514 1422.457886,139.621674 1426.934204,133.045471 
	C1432.631226,135.671280 1438.191040,137.925018 1443.455444,140.732727 
	C1451.312256,144.922974 1457.180054,150.687836 1457.332031,160.475876 
	C1457.388672,164.123810 1457.943970,167.763535 1458.260498,171.408005 
	C1460.174683,193.443039 1462.170776,215.471390 1463.971680,237.515686 
	C1465.515747,256.416809 1466.791504,275.339661 1468.264160,294.246857 
	C1470.459839,322.437469 1472.752686,350.620483 1474.950562,378.810944 
	C1476.747803,401.863647 1478.170776,424.949738 1480.292725,447.971893 
	C1483.155640,479.033783 1484.035645,510.085693 1482.266968,541.246277 
	C1480.517090,572.071350 1475.892822,602.409302 1467.998535,632.239380 
	C1461.772583,655.765320 1454.333496,678.960632 1442.910400,700.484497 
	C1426.600098,731.216919 1403.641235,757.007690 1379.666138,781.885437 
	C1359.434204,802.878967 1338.860718,823.545837 1318.772705,844.674866 
	C1294.165527,870.557129 1273.338623,899.044067 1259.409058,932.261108 
	C1251.802490,950.399780 1244.803711,968.682129 1240.576416,987.942078 
	C1238.609619,996.902710 1243.221069,1004.878662 1252.252197,1007.815613 
	C1262.034790,1010.997070 1270.136597,1007.820374 1273.867798,999.283691 
	C1275.666870,995.167786 1277.437744,991.036682 1279.096802,986.862976 
	C1286.039185,969.396484 1292.482666,951.715393 1299.958130,934.481201 
	C1309.841919,911.694275 1326.181519,893.319946 1343.011230,874.528015 
M397.996460,496.502686 
	C399.063141,521.931091 399.198486,547.441895 401.438599,572.766479 
	C404.078400,602.609558 410.546997,631.879578 419.512421,660.518982 
	C428.894745,690.490112 440.719147,719.292542 458.511200,745.484985 
	C477.436737,773.346130 500.458862,797.565613 523.888611,821.505554 
	C543.346619,841.387146 562.813477,861.267944 581.884949,881.517761 
	C599.696411,900.429688 614.674377,921.311584 624.051453,945.855042 
	C630.699768,963.256165 637.932007,980.436401 644.434692,997.889893 
	C647.979553,1007.404480 656.392334,1009.970154 664.950012,1007.968445 
	C673.691650,1005.923645 680.234924,997.500732 678.600403,989.770508 
	C674.042603,968.214722 667.539551,947.308472 657.749268,927.482666 
	C639.777222,891.088135 614.538879,859.976868 586.975769,830.650574 
	C566.440063,808.801453 545.512634,787.307983 524.352234,766.061951 
	C503.588837,745.214539 486.301636,721.960999 473.402039,695.529419 
	C447.969788,643.418213 438.535492,587.645142 436.010742,530.335571 
	C434.600342,498.320770 437.173889,466.458221 439.737671,434.590088 
	C441.898315,407.732422 443.761230,380.850983 445.836700,353.986267 
	C448.462982,319.992859 451.214050,286.009033 453.830505,252.014877 
	C456.000488,223.821426 458.116089,195.623413 460.124542,167.418091 
	C460.836365,157.422073 463.397797,148.347778 471.575836,141.811325 
	C477.296783,137.238770 484.312592,134.054642 490.999878,137.192383 
	C501.100800,141.931824 507.846283,150.293304 508.164520,162.191055 
	C508.600861,178.505112 508.873718,194.827896 508.908081,211.147568 
	C509.016083,262.473785 508.873169,313.800659 509.052643,365.126526 
	C509.123108,385.277954 509.696960,405.429749 510.221832,425.576660 
	C510.521149,437.065918 516.727295,442.298767 529.262512,442.111694 
	C539.794739,441.954559 545.794922,435.868805 545.978760,425.194183 
	C546.291504,407.043213 546.920227,388.891937 546.885315,370.741821 
	C546.794678,323.591888 546.371704,276.442657 546.198547,229.292755 
	C546.172546,222.220886 546.776978,215.146729 547.134216,207.068649 
	C554.947632,208.954834 562.267700,209.972855 569.011108,212.518677 
	C580.190491,216.739258 582.503723,220.624893 581.886414,232.647461 
	C580.734619,255.077942 579.362671,277.499420 577.825317,299.907013 
	C576.709900,316.164490 574.952881,332.378723 573.889648,348.638885 
	C572.370056,371.877777 571.061157,395.133636 570.000916,418.397736 
	C569.607910,427.022186 576.797668,433.205536 586.837708,433.836823 
	C596.458435,434.441803 604.145081,429.114258 604.916321,420.571381 
	C607.756348,389.111908 610.323914,357.627960 613.030396,326.156342 
	C614.027710,314.559479 615.127686,302.971436 616.176636,291.379028 
	C616.411560,288.782593 617.588074,287.317230 620.395264,287.969421 
	C625.881775,289.244080 631.549438,290.049347 636.791260,291.994385 
	C644.536438,294.868256 649.079651,301.007568 648.795105,309.283020 
	C648.120911,328.890289 647.502075,348.541534 645.616638,368.054749 
	C643.108276,394.014465 639.299133,419.846313 636.327271,445.765015 
	C635.664185,451.547119 638.005859,456.475067 643.247925,459.745361 
	C654.706177,466.893738 671.218140,460.858673 672.872620,448.821167 
	C675.655151,428.575562 678.429688,408.328796 681.148804,388.074585 
	C684.786011,360.981628 686.620117,333.773315 686.110779,306.428436 
	C686.064514,303.946198 685.869812,301.425446 685.370911,298.999329 
	C680.554504,275.578369 665.044250,261.911163 643.578003,254.102921 
	C636.315002,251.461029 628.620789,250.004684 620.672424,247.886307 
	C623.112671,226.875488 618.224304,207.784210 603.323120,191.899139 
	C588.466370,176.061432 569.747803,169.221207 548.224426,169.174423 
	C547.755310,166.188080 547.346375,163.748032 546.991577,161.300125 
	C544.561340,144.531784 540.072876,128.303604 527.518127,116.294991 
	C493.278320,83.544640 446.089447,101.094246 428.830719,136.048859 
	C423.891266,146.052826 423.527130,156.828415 422.738861,167.635162 
	C421.033142,191.020065 418.912964,214.374420 417.081116,237.750580 
	C415.573639,256.986664 414.284363,276.239777 412.813477,295.478851 
	C410.911835,320.352753 408.920227,345.219788 406.978027,370.090607 
	C405.579468,387.999451 404.105133,405.903076 402.832520,423.820923 
	C401.135864,447.709412 399.602142,471.609467 397.996460,496.502686 
M796.388489,706.137939 
	C806.694519,718.100342 816.076843,730.876282 819.627930,746.429016 
	C825.024048,770.062744 829.475830,793.923950 833.856445,817.775269 
	C843.430176,869.901672 852.594421,922.103333 862.216614,974.220642 
	C863.804382,982.820801 866.370300,991.332886 869.413574,999.541077 
	C871.647339,1005.566162 876.929504,1008.704529 883.568420,1008.885254 
	C897.005127,1009.250977 906.090881,996.857239 902.721802,983.061829 
	C900.319885,973.226929 897.886658,963.379822 896.048767,953.430786 
	C889.619934,918.630005 883.425110,883.785828 877.176270,848.951965 
	C871.367432,816.571167 865.645142,784.174805 859.804932,751.799622 
	C855.614014,728.566406 845.895081,707.898743 831.154907,689.432800 
	C813.744995,667.622253 791.871765,650.689697 770.783020,632.825806 
	C754.790833,619.279175 738.128601,606.179077 724.049622,590.789734 
	C694.281433,558.250854 666.089294,524.273499 637.066101,491.047363 
	C629.734192,482.653687 622.275879,474.210205 613.878601,466.941498 
	C597.519470,452.781006 577.937744,449.448242 557.155212,453.374695 
	C537.316467,457.122833 520.433228,466.080994 511.518768,485.261658 
	C501.231964,507.395081 503.430115,529.537659 515.038818,550.453003 
	C529.174133,575.920593 544.077332,600.965881 558.858826,626.070007 
	C579.468262,661.072205 600.275452,695.957886 620.991516,730.897339 
	C625.850220,739.091919 636.511230,741.543213 645.562561,736.522461 
	C654.870239,731.359497 657.891602,722.798462 652.766724,713.831116 
	C632.284973,677.993286 611.348816,642.414062 591.008484,606.496948 
	C575.183289,578.552612 559.859558,550.320923 544.593933,522.065125 
	C539.569397,512.765076 541.293457,504.677460 548.693054,497.586884 
	C558.912231,487.794525 581.213318,484.647217 593.960754,499.538483 
	C614.421387,523.440308 635.658691,546.686340 655.810486,570.841370 
	C684.157227,604.819153 714.193420,636.909607 749.152161,664.332520 
	C765.484070,677.143921 780.378784,691.787598 796.388489,706.137939 
M1398.851440,472.658783 
	C1379.751953,454.041351 1356.891968,448.739044 1331.191406,453.610870 
	C1318.134033,456.086060 1308.588257,464.231354 1299.334595,473.084045 
	C1272.535156,498.722351 1249.794189,527.923706 1226.006470,556.200012 
	C1203.660522,582.762451 1179.950317,607.850403 1152.587158,629.427490 
	C1130.106567,647.154419 1107.671875,665.041199 1089.288330,687.296936 
	C1077.291992,701.820068 1066.991943,717.506958 1062.963135,736.070374 
	C1056.729248,764.794617 1051.370483,793.716736 1046.073120,822.634216 
	C1040.385132,853.683533 1035.316040,884.845764 1029.751465,915.918274 
	C1025.417358,940.119507 1020.736816,964.258667 1016.212708,988.425903 
	C1014.393921,998.141724 1019.816833,1005.736145 1030.107788,1007.894714 
	C1040.362427,1010.045654 1048.832520,1005.352905 1050.939819,995.816284 
	C1057.033447,968.240356 1063.558594,940.736694 1068.716187,912.982056 
	C1077.639648,864.964111 1085.683960,816.782410 1094.048096,768.661011 
	C1097.179688,750.644226 1102.112427,733.423523 1112.987671,718.228882 
	C1125.763672,700.378357 1142.071655,686.192688 1159.187744,672.918152 
	C1197.409424,643.274658 1231.190918,609.272644 1261.936890,571.972473 
	C1282.361450,547.193848 1304.096436,523.493591 1325.312744,499.370270 
	C1333.020996,490.605896 1342.767578,487.638153 1354.142822,489.997528 
	C1369.454712,493.173401 1384.194336,505.435028 1372.684692,525.897766 
	C1359.795166,548.813904 1347.641479,572.146240 1334.622314,594.986755 
	C1311.958008,634.748840 1288.923340,674.300354 1265.928345,713.873108 
	C1261.265137,721.898071 1264.550049,731.545288 1272.003174,735.854492 
	C1281.323853,741.243469 1292.094727,739.700989 1296.936401,731.877380 
	C1305.609253,717.863647 1314.201172,703.795776 1322.571777,689.600037 
	C1344.047241,653.180237 1365.364258,616.666992 1386.782593,580.213501 
	C1395.629517,565.156433 1405.151123,550.470947 1410.286011,533.521606 
	C1416.962036,511.484650 1415.009277,491.112823 1398.851440,472.658783 
M757.996338,487.497589 
	C757.996338,440.740173 757.996338,393.982727 757.996338,347.159180 
	C813.249390,347.159180 867.823669,347.159180 922.948120,347.159180 
	C922.948120,399.338318 922.948120,451.229218 922.948120,503.292725 
	C935.560486,503.292725 947.619141,503.292725 959.710205,503.292725 
	C959.710205,397.511597 959.710205,292.095886 959.710205,186.483856 
	C947.389526,186.483856 935.343079,186.483856 922.804565,186.483856 
	C922.804565,229.407990 922.804565,271.983917 922.804565,314.603058 
	C867.612061,314.603058 812.915283,314.603058 757.740234,314.603058 
	C757.740234,271.637939 757.740234,229.066727 757.740234,186.547028 
	C745.205261,186.547028 733.154602,186.547028 721.125610,186.547028 
	C721.125610,292.357117 721.125610,397.752502 721.125610,503.303925 
	C733.542419,503.303925 745.610779,503.303925 757.996338,503.303925 
	C757.996338,498.133667 757.996338,493.314667 757.996338,487.497589 
M1100.500000,410.139893 
	C1073.252319,410.139893 1046.004761,410.139893 1018.699585,410.139893 
	C1018.699585,374.392456 1018.699585,339.461121 1018.699585,304.008636 
	C1071.367798,304.008636 1123.769897,304.008636 1176.277954,304.008636 
	C1176.277954,293.454468 1176.277954,283.427795 1176.277954,273.387390 
	C1111.081299,273.387390 1046.319458,273.387390 981.316284,273.387390 
	C981.316284,379.149200 981.316284,484.663361 981.316284,590.236511 
	C1047.670898,590.236511 1113.705811,590.236511 1179.661865,590.236511 
	C1179.661865,579.929688 1179.661865,570.019043 1179.661865,559.676208 
	C1125.868896,559.676208 1072.441650,559.676208 1018.723938,559.676208 
	C1018.723938,519.999939 1018.723938,480.766235 1018.723938,440.940460 
	C1065.178345,440.940460 1111.394897,440.940460 1157.660156,440.940460 
	C1157.660156,430.437134 1157.660156,420.528412 1157.660156,410.139984 
	C1138.742188,410.139984 1120.121094,410.139984 1100.500000,410.139893 
M1027.627075,257.244324 
	C1035.576782,253.706207 1040.510986,247.531265 1043.226196,239.412766 
	C1046.033813,231.017456 1046.205688,222.456100 1044.914795,213.785034 
	C1042.478760,197.420105 1031.463623,187.538284 1014.733521,186.757156 
	C998.538452,186.000992 986.569885,195.120071 982.894287,211.050461 
	C980.915955,219.625214 980.925964,228.237350 983.109070,236.739075 
	C986.411316,249.599777 994.547852,257.936310 1007.837708,259.457520 
	C1014.052795,260.168915 1020.563843,258.294434 1027.627075,257.244324 
M1138.534912,259.011536 
	C1149.963867,259.011536 1161.392822,259.011536 1172.871826,259.011536 
	C1172.871826,256.414032 1172.871826,254.483765 1172.871826,252.013794 
	C1160.901611,252.013794 1149.173828,252.013794 1137.385742,252.013794 
	C1137.385742,242.940781 1137.385742,234.416336 1137.385742,225.347763 
	C1147.864380,225.347763 1157.935425,225.347763 1167.925171,225.347763 
	C1167.925171,222.717682 1167.925171,220.662659 1167.925171,218.063141 
	C1157.437134,218.063141 1147.377686,218.063141 1137.276611,218.063141 
	C1137.276611,210.101837 1137.276611,202.693207 1137.276611,194.695587 
	C1149.118530,194.695587 1160.665039,194.695587 1172.169800,194.695587 
	C1172.169800,192.038589 1172.169800,190.004990 1172.169800,188.084320 
	C1157.366455,188.084320 1143.005859,188.084320 1128.719971,188.084320 
	C1128.719971,211.937912 1128.719971,235.324661 1128.719971,259.011536 
	C1131.914185,259.011536 1134.732788,259.011536 1138.534912,259.011536 
M1071.964722,240.540070 
	C1071.964722,237.463562 1071.964722,234.387070 1071.964722,230.996109 
	C1079.257690,230.996109 1085.743164,231.241211 1092.203613,230.942886 
	C1104.090210,230.394028 1111.540161,222.674454 1112.388916,210.460373 
	C1113.171509,199.197525 1106.375977,189.541733 1095.224243,188.439194 
	C1084.891479,187.417633 1074.378174,188.221420 1063.647827,188.221420 
	C1063.647827,211.748718 1063.647827,235.120102 1063.647827,258.697815 
	C1066.448975,258.697815 1068.998047,258.697815 1071.964722,258.697815 
	C1071.964722,252.773514 1071.964722,247.150009 1071.964722,240.540070 
M754.401794,528.151062 
	C751.961670,526.801514 749.576660,524.421997 747.071472,524.288086 
	C738.176453,523.812378 729.240540,524.102478 720.326233,524.102478 
	C720.326233,542.617065 720.326233,561.161926 720.326233,579.219055 
	C730.434570,579.219055 740.266357,579.923401 749.938721,578.984985 
	C757.035461,578.296448 760.519409,573.061096 761.232788,565.747070 
	C761.949951,558.394531 759.274170,553.455017 752.888550,550.281067 
	C752.086304,549.882263 751.347107,549.356506 750.477783,548.828186 
	C758.464111,542.036316 759.560425,536.758179 754.401794,528.151062 
M907.907776,556.761292 
	C908.802673,566.013245 911.895325,574.218384 920.833618,578.369873 
	C930.726257,582.964722 940.094727,582.045166 947.827271,572.918335 
	C948.060852,575.636780 948.240173,577.723694 948.409363,579.692749 
	C950.591309,579.692749 952.338013,579.692749 954.048401,579.692749 
	C954.048401,569.653259 954.048401,559.937134 954.048401,550.193665 
	C946.548157,550.193665 939.441406,550.193665 931.940430,550.193665 
	C932.020386,551.990723 932.088501,553.520508 932.176331,555.494507 
	C937.575500,555.494507 942.502075,555.494507 947.778931,555.494507 
	C947.993652,562.182312 948.377197,568.449341 942.248779,572.444214 
	C932.666382,578.690552 918.434692,573.551331 916.302368,562.389832 
	C914.997253,555.558044 915.236389,548.134827 916.325928,541.220520 
	C917.562073,533.375244 923.751892,529.290894 931.728394,528.855225 
	C939.025391,528.456543 945.269409,530.189270 948.997192,537.277039 
	C950.892517,536.169373 952.293396,535.350708 955.014099,533.760681 
	C951.620483,530.614258 949.115295,527.132263 945.718567,525.339355 
	C929.452026,516.753601 910.427063,526.787476 908.135925,544.947266 
	C907.680786,548.554321 907.907715,552.247498 907.907776,556.761292 
M877.761780,524.602417 
	C868.866760,524.066956 859.971741,523.531494 850.750000,522.976379 
	C850.750000,542.612915 850.750000,561.159485 850.750000,580.008057 
	C856.914551,580.008057 862.735901,580.048279 868.556641,580.000610 
	C886.707520,579.851868 896.262146,570.260376 896.398254,552.097046 
	C896.508118,537.437561 890.793091,528.716187 877.761780,524.602417 
M774.399902,571.423584 
	C774.399902,574.187378 774.399902,576.951172 774.399902,579.647949 
	C777.035950,579.647949 778.932312,579.647949 781.358154,579.647949 
	C781.358154,571.223328 781.358154,563.149292 781.358154,554.817383 
	C784.887024,554.817383 787.876831,554.777039 790.865234,554.825562 
	C797.404053,554.931763 799.739136,556.591797 801.892273,562.807373 
	C803.307800,566.893738 804.948242,570.955200 805.810852,575.166504 
	C806.871948,580.346436 809.749329,580.727844 814.475037,579.357300 
	C810.221985,570.351379 810.609680,559.715088 801.868713,552.890564 
	C803.004883,552.265747 803.841187,551.803284 804.679749,551.344971 
	C810.860413,547.967163 813.019653,543.438721 812.036255,535.913757 
	C811.263794,530.001953 807.371277,524.913452 801.244080,524.390442 
	C792.552551,523.648560 783.750427,524.202148 774.400391,524.202148 
	C774.400391,539.542847 774.400391,554.992676 774.399902,571.423584 
M826.872864,529.587830 
	C826.872864,546.325867 826.872864,563.063904 826.872864,580.049622 
	C829.427185,579.933777 831.185425,579.854065 833.299377,579.758240 
	C833.299377,570.214844 833.299377,561.082520 833.299377,551.950195 
	C833.299377,542.683594 833.299377,533.416992 833.299377,523.970215 
	C830.882263,523.970215 829.143738,523.970215 827.134583,523.970215 
	C827.037781,525.686218 826.955322,527.146667 826.872864,529.587830 
z"/>
<path fill="#5DE1E6" opacity="1.000000" stroke="none" 
	d="
M1342.766602,874.785767 
	C1326.181519,893.319946 1309.841919,911.694275 1299.958130,934.481201 
	C1292.482666,951.715393 1286.039185,969.396484 1279.096802,986.862976 
	C1277.437744,991.036682 1275.666870,995.167786 1273.867798,999.283691 
	C1270.136597,1007.820374 1262.034790,1010.997070 1252.252197,1007.815613 
	C1243.221069,1004.878662 1238.609619,996.902710 1240.576416,987.942078 
	C1244.803711,968.682129 1251.802490,950.399780 1259.409058,932.261108 
	C1273.338623,899.044067 1294.165527,870.557129 1318.772705,844.674866 
	C1338.860718,823.545837 1359.434204,802.878967 1379.666138,781.885437 
	C1403.641235,757.007690 1426.600098,731.216919 1442.910400,700.484497 
	C1454.333496,678.960632 1461.772583,655.765320 1467.998535,632.239380 
	C1475.892822,602.409302 1480.517090,572.071350 1482.266968,541.246277 
	C1484.035645,510.085693 1483.155640,479.033783 1480.292725,447.971893 
	C1478.170776,424.949738 1476.747803,401.863647 1474.950562,378.810944 
	C1472.752686,350.620483 1470.459839,322.437469 1468.264160,294.246857 
	C1466.791504,275.339661 1465.515747,256.416809 1463.971680,237.515686 
	C1462.170776,215.471390 1460.174683,193.443039 1458.260498,171.408005 
	C1457.943970,167.763535 1457.388672,164.123810 1457.332031,160.475876 
	C1457.180054,150.687836 1451.312256,144.922974 1443.455444,140.732727 
	C1438.191040,137.925018 1432.631226,135.671280 1426.934204,133.045471 
	C1422.457886,139.621674 1417.719971,145.829514 1413.877075,152.549240 
	C1411.990723,155.847992 1410.982056,160.081787 1410.912231,163.916733 
	C1410.415161,191.234421 1410.110107,218.557983 1410.033203,245.880493 
	C1409.875977,301.712830 1410.026733,357.546417 1409.687988,413.377319 
	C1409.646606,420.201385 1408.119629,427.257721 1405.951050,433.763092 
	C1403.553711,440.955048 1397.243896,443.313599 1389.874268,442.915100 
	C1382.352051,442.508331 1376.268921,439.454407 1374.325195,431.942963 
	C1372.724243,425.755920 1372.048584,419.167725 1372.039185,412.755737 
	C1371.951538,353.590118 1372.099609,294.424133 1372.174805,235.258255 
	C1372.186279,226.303604 1372.176514,217.348938 1372.176514,207.752945 
	C1361.394287,209.115158 1351.312378,209.975372 1342.709351,216.150177 
	C1338.666504,219.051941 1336.487549,223.006805 1336.815186,228.140991 
	C1338.436279,253.544754 1339.978271,278.953796 1341.688110,304.351562 
	C1342.626831,318.292419 1343.874634,332.212189 1344.925293,346.145813 
	C1346.613159,368.529663 1348.185791,390.922394 1349.949219,413.300171 
	C1350.572632,421.210602 1346.749512,428.098450 1339.103394,431.897217 
	C1332.292603,435.280945 1322.272339,434.366333 1317.467285,429.698242 
	C1316.356323,428.618958 1315.424072,426.949066 1315.194824,425.432281 
	C1313.034912,411.144470 1310.350220,396.888550 1309.157837,382.512177 
	C1306.944336,355.822693 1305.685669,329.054901 1303.890747,302.328979 
	C1303.570923,297.568054 1302.579712,292.852173 1301.841797,287.721344 
	C1293.244629,288.407196 1285.328979,289.619690 1278.188477,294.041412 
	C1272.737549,297.416931 1270.261475,302.443634 1270.034058,308.634766 
	C1269.089233,334.353821 1272.085571,359.795715 1275.384888,385.229584 
	C1278.036011,405.667694 1280.507690,426.132355 1282.737793,446.620178 
	C1283.667725,455.162628 1276.193970,462.219086 1266.139771,462.973846 
	C1256.430054,463.702728 1247.924683,459.063751 1246.547363,448.336090 
	C1243.331787,423.288910 1238.837646,398.391632 1236.146118,373.295868 
	C1233.913452,352.479889 1233.118774,331.480560 1232.410278,310.537964 
	C1231.583740,286.104340 1246.059326,265.515076 1271.104614,255.391144 
	C1279.485596,252.003342 1288.542603,250.287659 1298.110962,247.575104 
	C1294.874756,226.959763 1300.341797,207.728027 1315.148193,191.883835 
	C1329.867065,176.133224 1348.580566,168.797150 1369.935425,168.992096 
	C1372.004150,159.918564 1373.477661,150.896683 1376.145752,142.243149 
	C1383.476685,118.467422 1399.550537,103.825768 1424.146240,99.667511 
	C1442.115845,96.629501 1458.053467,102.694908 1472.101685,113.655411 
	C1486.397339,124.808762 1493.724854,139.685043 1495.103149,157.840027 
	C1497.419800,188.352325 1500.312866,218.820450 1502.731934,249.325500 
	C1504.691406,274.034637 1506.177002,298.781250 1508.118042,323.491943 
	C1510.175659,349.686462 1512.620117,375.850464 1514.711792,402.042480 
	C1516.327393,422.272858 1518.061035,442.507141 1519.008545,462.773987 
	C1520.042480,484.888153 1521.414062,507.087189 1520.567261,529.169800 
	C1517.979858,596.642578 1505.663086,661.996460 1474.034180,722.536072 
	C1462.251587,745.088562 1447.403320,765.679077 1430.034424,784.183716 
	C1405.408936,810.419373 1379.991943,835.911926 1354.942749,861.750671 
	C1350.887329,865.933960 1346.984619,870.265198 1342.766602,874.785767 
z"/>
<path fill="#5DE1E6" opacity="1.000000" stroke="none" 
	d="
M397.997437,496.003601 
	C399.602142,471.609467 401.135864,447.709412 402.832520,423.820923 
	C404.105133,405.903076 405.579468,387.999451 406.978027,370.090607 
	C408.920227,345.219788 410.911835,320.352753 412.813477,295.478851 
	C414.284363,276.239777 415.573639,256.986664 417.081116,237.750580 
	C418.912964,214.374420 421.033142,191.020065 422.738861,167.635162 
	C423.527130,156.828415 423.891266,146.052826 428.830719,136.048859 
	C446.089447,101.094246 493.278320,83.544640 527.518127,116.294991 
	C540.072876,128.303604 544.561340,144.531784 546.991577,161.300125 
	C547.346375,163.748032 547.755310,166.188080 548.224426,169.174423 
	C569.747803,169.221207 588.466370,176.061432 603.323120,191.899139 
	C618.224304,207.784210 623.112671,226.875488 620.672424,247.886307 
	C628.620789,250.004684 636.315002,251.461029 643.578003,254.102921 
	C665.044250,261.911163 680.554504,275.578369 685.370911,298.999329 
	C685.869812,301.425446 686.064514,303.946198 686.110779,306.428436 
	C686.620117,333.773315 684.786011,360.981628 681.148804,388.074585 
	C678.429688,408.328796 675.655151,428.575562 672.872620,448.821167 
	C671.218140,460.858673 654.706177,466.893738 643.247925,459.745361 
	C638.005859,456.475067 635.664185,451.547119 636.327271,445.765015 
	C639.299133,419.846313 643.108276,394.014465 645.616638,368.054749 
	C647.502075,348.541534 648.120911,328.890289 648.795105,309.283020 
	C649.079651,301.007568 644.536438,294.868256 636.791260,291.994385 
	C631.549438,290.049347 625.881775,289.244080 620.395264,287.969421 
	C617.588074,287.317230 616.411560,288.782593 616.176636,291.379028 
	C615.127686,302.971436 614.027710,314.559479 613.030396,326.156342 
	C610.323914,357.627960 607.756348,389.111908 604.916321,420.571381 
	C604.145081,429.114258 596.458435,434.441803 586.837708,433.836823 
	C576.797668,433.205536 569.607910,427.022186 570.000916,418.397736 
	C571.061157,395.133636 572.370056,371.877777 573.889648,348.638885 
	C574.952881,332.378723 576.709900,316.164490 577.825317,299.907013 
	C579.362671,277.499420 580.734619,255.077942 581.886414,232.647461 
	C582.503723,220.624893 580.190491,216.739258 569.011108,212.518677 
	C562.267700,209.972855 554.947632,208.954834 547.134216,207.068649 
	C546.776978,215.146729 546.172546,222.220886 546.198547,229.292755 
	C546.371704,276.442657 546.794678,323.591888 546.885315,370.741821 
	C546.920227,388.891937 546.291504,407.043213 545.978760,425.194183 
	C545.794922,435.868805 539.794739,441.954559 529.262512,442.111694 
	C516.727295,442.298767 510.521149,437.065918 510.221832,425.576660 
	C509.696960,405.429749 509.123108,385.277954 509.052643,365.126526 
	C508.873169,313.800659 509.016083,262.473785 508.908081,211.147568 
	C508.873718,194.827896 508.600861,178.505112 508.164520,162.191055 
	C507.846283,150.293304 501.100800,141.931824 490.999878,137.192383 
	C484.312592,134.054642 477.296783,137.238770 471.575836,141.811325 
	C463.397797,148.347778 460.836365,157.422073 460.124542,167.418091 
	C458.116089,195.623413 456.000488,223.821426 453.830505,252.014877 
	C451.214050,286.009033 448.462982,319.992859 445.836700,353.986267 
	C443.761230,380.850983 441.898315,407.732422 439.737671,434.590088 
	C437.173889,466.458221 434.600342,498.320770 436.010742,530.335571 
	C438.535492,587.645142 447.969788,643.418213 473.402039,695.529419 
	C486.301636,721.960999 503.588837,745.214539 524.352234,766.061951 
	C545.512634,787.307983 566.440063,808.801453 586.975769,830.650574 
	C614.538879,859.976868 639.777222,891.088135 657.749268,927.482666 
	C667.539551,947.308472 674.042603,968.214722 678.600403,989.770508 
	C680.234924,997.500732 673.691650,1005.923645 664.950012,1007.968445 
	C656.392334,1009.970154 647.979553,1007.404480 644.434692,997.889893 
	C637.932007,980.436401 630.699768,963.256165 624.051453,945.855042 
	C614.674377,921.311584 599.696411,900.429688 581.884949,881.517761 
	C562.813477,861.267944 543.346619,841.387146 523.888611,821.505554 
	C500.458862,797.565613 477.436737,773.346130 458.511200,745.484985 
	C440.719147,719.292542 428.894745,690.490112 419.512421,660.518982 
	C410.546997,631.879578 404.078400,602.609558 401.438599,572.766479 
	C399.198486,547.441895 399.063141,521.931091 397.997437,496.003601 
z"/>
<path fill="#5DE1E6" opacity="1.000000" stroke="none" 
	d="
M796.156677,705.869385 
	C780.378784,691.787598 765.484070,677.143921 749.152161,664.332520 
	C714.193420,636.909607 684.157227,604.819153 655.810486,570.841370 
	C635.658691,546.686340 614.421387,523.440308 593.960754,499.538483 
	C581.213318,484.647217 558.912231,487.794525 548.693054,497.586884 
	C541.293457,504.677460 539.569397,512.765076 544.593933,522.065125 
	C559.859558,550.320923 575.183289,578.552612 591.008484,606.496948 
	C611.348816,642.414062 632.284973,677.993286 652.766724,713.831116 
	C657.891602,722.798462 654.870239,731.359497 645.562561,736.522461 
	C636.511230,741.543213 625.850220,739.091919 620.991516,730.897339 
	C600.275452,695.957886 579.468262,661.072205 558.858826,626.070007 
	C544.077332,600.965881 529.174133,575.920593 515.038818,550.453003 
	C503.430115,529.537659 501.231964,507.395081 511.518768,485.261658 
	C520.433228,466.080994 537.316467,457.122833 557.155212,453.374695 
	C577.937744,449.448242 597.519470,452.781006 613.878601,466.941498 
	C622.275879,474.210205 629.734192,482.653687 637.066101,491.047363 
	C666.089294,524.273499 694.281433,558.250854 724.049622,590.789734 
	C738.128601,606.179077 754.790833,619.279175 770.783020,632.825806 
	C791.871765,650.689697 813.744995,667.622253 831.154907,689.432800 
	C845.895081,707.898743 855.614014,728.566406 859.804932,751.799622 
	C865.645142,784.174805 871.367432,816.571167 877.176270,848.951965 
	C883.425110,883.785828 889.619934,918.630005 896.048767,953.430786 
	C897.886658,963.379822 900.319885,973.226929 902.721802,983.061829 
	C906.090881,996.857239 897.005127,1009.250977 883.568420,1008.885254 
	C876.929504,1008.704529 871.647339,1005.566162 869.413574,999.541077 
	C866.370300,991.332886 863.804382,982.820801 862.216614,974.220642 
	C852.594421,922.103333 843.430176,869.901672 833.856445,817.775269 
	C829.475830,793.923950 825.024048,770.062744 819.627930,746.429016 
	C816.076843,730.876282 806.694519,718.100342 796.156677,705.869385 
z"/>
<path fill="#5DE1E6" opacity="1.000000" stroke="none" 
	d="
M1399.096191,472.918091 
	C1415.009277,491.112823 1416.962036,511.484650 1410.286011,533.521606 
	C1405.151123,550.470947 1395.629517,565.156433 1386.782593,580.213501 
	C1365.364258,616.666992 1344.047241,653.180237 1322.571777,689.600037 
	C1314.201172,703.795776 1305.609253,717.863647 1296.936401,731.877380 
	C1292.094727,739.700989 1281.323853,741.243469 1272.003174,735.854492 
	C1264.550049,731.545288 1261.265137,721.898071 1265.928345,713.873108 
	C1288.923340,674.300354 1311.958008,634.748840 1334.622314,594.986755 
	C1347.641479,572.146240 1359.795166,548.813904 1372.684692,525.897766 
	C1384.194336,505.435028 1369.454712,493.173401 1354.142822,489.997528 
	C1342.767578,487.638153 1333.020996,490.605896 1325.312744,499.370270 
	C1304.096436,523.493591 1282.361450,547.193848 1261.936890,571.972473 
	C1231.190918,609.272644 1197.409424,643.274658 1159.187744,672.918152 
	C1142.071655,686.192688 1125.763672,700.378357 1112.987671,718.228882 
	C1102.112427,733.423523 1097.179688,750.644226 1094.048096,768.661011 
	C1085.683960,816.782410 1077.639648,864.964111 1068.716187,912.982056 
	C1063.558594,940.736694 1057.033447,968.240356 1050.939819,995.816284 
	C1048.832520,1005.352905 1040.362427,1010.045654 1030.107788,1007.894714 
	C1019.816833,1005.736145 1014.393921,998.141724 1016.212708,988.425903 
	C1020.736816,964.258667 1025.417358,940.119507 1029.751465,915.918274 
	C1035.316040,884.845764 1040.385132,853.683533 1046.073120,822.634216 
	C1051.370483,793.716736 1056.729248,764.794617 1062.963135,736.070374 
	C1066.991943,717.506958 1077.291992,701.820068 1089.288330,687.296936 
	C1107.671875,665.041199 1130.106567,647.154419 1152.587158,629.427490 
	C1179.950317,607.850403 1203.660522,582.762451 1226.006470,556.200012 
	C1249.794189,527.923706 1272.535156,498.722351 1299.334595,473.084045 
	C1308.588257,464.231354 1318.134033,456.086060 1331.191406,453.610870 
	C1356.891968,448.739044 1379.751953,454.041351 1399.096191,472.918091 
z"/>
<path fill="#7ED958" opacity="1.000000" stroke="none" 
	d="
M757.996338,487.996643 
	C757.996338,493.314667 757.996338,498.133667 757.996338,503.303925 
	C745.610779,503.303925 733.542419,503.303925 721.125610,503.303925 
	C721.125610,397.752502 721.125610,292.357117 721.125610,186.547028 
	C733.154602,186.547028 745.205261,186.547028 757.740234,186.547028 
	C757.740234,229.066727 757.740234,271.637939 757.740234,314.603058 
	C812.915283,314.603058 867.612061,314.603058 922.804565,314.603058 
	C922.804565,271.983917 922.804565,229.407990 922.804565,186.483856 
	C935.343079,186.483856 947.389526,186.483856 959.710205,186.483856 
	C959.710205,292.095886 959.710205,397.511597 959.710205,503.292725 
	C947.619141,503.292725 935.560486,503.292725 922.948120,503.292725 
	C922.948120,451.229218 922.948120,399.338318 922.948120,347.159180 
	C867.823669,347.159180 813.249390,347.159180 757.996338,347.159180 
	C757.996338,393.982727 757.996338,440.740173 757.996338,487.996643 
z"/>
<path fill="#FF5858" opacity="1.000000" stroke="none" 
	d="
M1101.000000,410.139954 
	C1120.121094,410.139984 1138.742188,410.139984 1157.660156,410.139984 
	C1157.660156,420.528412 1157.660156,430.437134 1157.660156,440.940460 
	C1111.394897,440.940460 1065.178345,440.940460 1018.723938,440.940460 
	C1018.723938,480.766235 1018.723938,519.999939 1018.723938,559.676208 
	C1072.441650,559.676208 1125.868896,559.676208 1179.661865,559.676208 
	C1179.661865,570.019043 1179.661865,579.929688 1179.661865,590.236511 
	C1113.705811,590.236511 1047.670898,590.236511 981.316284,590.236511 
	C981.316284,484.663361 981.316284,379.149200 981.316284,273.387390 
	C1046.319458,273.387390 1111.081299,273.387390 1176.277954,273.387390 
	C1176.277954,283.427795 1176.277954,293.454468 1176.277954,304.008636 
	C1123.769897,304.008636 1071.367798,304.008636 1018.699585,304.008636 
	C1018.699585,339.461121 1018.699585,374.392456 1018.699585,410.139893 
	C1046.004761,410.139893 1073.252319,410.139893 1101.000000,410.139954 
z"/>
<path fill="#82DA5C" opacity="1.000000" stroke="none" 
	d="
M1027.283936,257.418152 
	C1020.563843,258.294434 1014.052795,260.168915 1007.837708,259.457520 
	C994.547852,257.936310 986.411316,249.599777 983.109070,236.739075 
	C980.925964,228.237350 980.915955,219.625214 982.894287,211.050461 
	C986.569885,195.120071 998.538452,186.000992 1014.733521,186.757156 
	C1031.463623,187.538284 1042.478760,197.420105 1044.914795,213.785034 
	C1046.205688,222.456100 1046.033813,231.017456 1043.226196,239.412766 
	C1040.510986,247.531265 1035.576782,253.706207 1027.283936,257.418152 
M1035.896484,214.102982 
	C1035.590820,212.809296 1035.321411,211.505753 1034.973755,210.223465 
	C1032.234985,200.123215 1025.388062,194.931229 1014.515930,194.690079 
	C1002.728333,194.428619 994.927734,198.933090 992.760620,209.504242 
	C991.131165,217.452744 990.788818,226.081284 991.974487,234.096283 
	C993.904785,247.145309 1001.769226,252.495819 1015.210510,252.100830 
	C1026.450073,251.770538 1034.116577,244.972458 1035.731689,232.912872 
	C1036.518921,227.034439 1035.944702,220.973679 1035.896484,214.102982 
z"/>
<path fill="#81DA5B" opacity="1.000000" stroke="none" 
	d="
M1138.043213,259.011536 
	C1134.732788,259.011536 1131.914185,259.011536 1128.719971,259.011536 
	C1128.719971,235.324661 1128.719971,211.937912 1128.719971,188.084320 
	C1143.005859,188.084320 1157.366455,188.084320 1172.169800,188.084320 
	C1172.169800,190.004990 1172.169800,192.038589 1172.169800,194.695587 
	C1160.665039,194.695587 1149.118530,194.695587 1137.276611,194.695587 
	C1137.276611,202.693207 1137.276611,210.101837 1137.276611,218.063141 
	C1147.377686,218.063141 1157.437134,218.063141 1167.925171,218.063141 
	C1167.925171,220.662659 1167.925171,222.717682 1167.925171,225.347763 
	C1157.935425,225.347763 1147.864380,225.347763 1137.385742,225.347763 
	C1137.385742,234.416336 1137.385742,242.940781 1137.385742,252.013794 
	C1149.173828,252.013794 1160.901611,252.013794 1172.871826,252.013794 
	C1172.871826,254.483765 1172.871826,256.414032 1172.871826,259.011536 
	C1161.392822,259.011536 1149.963867,259.011536 1138.043213,259.011536 
z"/>
<path fill="#80DA5A" opacity="1.000000" stroke="none" 
	d="
M1071.964722,241.033279 
	C1071.964722,247.150009 1071.964722,252.773514 1071.964722,258.697815 
	C1068.998047,258.697815 1066.448975,258.697815 1063.647827,258.697815 
	C1063.647827,235.120102 1063.647827,211.748718 1063.647827,188.221420 
	C1074.378174,188.221420 1084.891479,187.417633 1095.224243,188.439194 
	C1106.375977,189.541733 1113.171509,199.197525 1112.388916,210.460373 
	C1111.540161,222.674454 1104.090210,230.394028 1092.203613,230.942886 
	C1085.743164,231.241211 1079.257690,230.996109 1071.964722,230.996109 
	C1071.964722,234.387070 1071.964722,237.463562 1071.964722,241.033279 
M1103.690308,209.499481 
	C1102.328369,199.834427 1100.041626,196.125946 1093.100586,195.403687 
	C1086.253784,194.691193 1079.274780,195.248093 1072.349854,195.248093 
	C1072.349854,204.966827 1072.349854,214.339050 1072.349854,223.975815 
	C1077.714722,223.975815 1082.693359,224.010483 1087.671509,223.968658 
	C1098.348267,223.878967 1101.926758,220.796036 1103.690308,209.499481 
z"/>
<path fill="#FF5D5D" opacity="1.000000" stroke="none" 
	d="
M754.645996,528.430908 
	C759.560425,536.758179 758.464111,542.036316 750.477783,548.828186 
	C751.347107,549.356506 752.086304,549.882263 752.888550,550.281067 
	C759.274170,553.455017 761.949951,558.394531 761.232788,565.747070 
	C760.519409,573.061096 757.035461,578.296448 749.938721,578.984985 
	C740.266357,579.923401 730.434570,579.219055 720.326233,579.219055 
	C720.326233,561.161926 720.326233,542.617065 720.326233,524.102478 
	C729.240540,524.102478 738.176453,523.812378 747.071472,524.288086 
	C749.576660,524.421997 751.961670,526.801514 754.645996,528.430908 
M731.693542,574.628174 
	C736.497925,574.450073 741.332825,574.548279 746.098755,574.021851 
	C751.715027,573.401428 754.639404,569.510620 754.568481,563.606873 
	C754.497253,557.674561 751.526306,553.569214 746.044983,553.171936 
	C739.826050,552.721130 733.549255,553.067810 726.813721,553.067810 
	C726.813721,559.555664 726.901245,565.657349 726.777527,571.754761 
	C726.713806,574.896118 728.740234,574.639648 731.693542,574.628174 
M726.812988,539.470520 
	C726.812988,541.899109 726.812988,544.327637 726.812988,546.906555 
	C728.475342,547.013550 729.451172,547.129761 730.427002,547.129822 
	C734.424683,547.130188 738.431580,547.258057 742.417725,547.032593 
	C747.579224,546.740723 750.750977,543.375977 750.934509,538.397827 
	C751.123291,533.277466 748.354614,529.669983 743.083191,529.256409 
	C737.838684,528.845032 732.536621,529.166382 726.812805,529.166382 
	C726.812805,532.573669 726.812805,535.534851 726.812988,539.470520 
z"/>
<path fill="#FF5C5C" opacity="1.000000" stroke="none" 
	d="
M907.863953,556.331116 
	C907.907715,552.247498 907.680786,548.554321 908.135925,544.947266 
	C910.427063,526.787476 929.452026,516.753601 945.718567,525.339355 
	C949.115295,527.132263 951.620483,530.614258 955.014099,533.760681 
	C952.293396,535.350708 950.892517,536.169373 948.997192,537.277039 
	C945.269409,530.189270 939.025391,528.456543 931.728394,528.855225 
	C923.751892,529.290894 917.562073,533.375244 916.325928,541.220520 
	C915.236389,548.134827 914.997253,555.558044 916.302368,562.389832 
	C918.434692,573.551331 932.666382,578.690552 942.248779,572.444214 
	C948.377197,568.449341 947.993652,562.182312 947.778931,555.494507 
	C942.502075,555.494507 937.575500,555.494507 932.176331,555.494507 
	C932.088501,553.520508 932.020386,551.990723 931.940430,550.193665 
	C939.441406,550.193665 946.548157,550.193665 954.048401,550.193665 
	C954.048401,559.937134 954.048401,569.653259 954.048401,579.692749 
	C952.338013,579.692749 950.591309,579.692749 948.409363,579.692749 
	C948.240173,577.723694 948.060852,575.636780 947.827271,572.918335 
	C940.094727,582.045166 930.726257,582.964722 920.833618,578.369873 
	C911.895325,574.218384 908.802673,566.013245 907.863953,556.331116 
z"/>
<path fill="#FF5B5B" opacity="1.000000" stroke="none" 
	d="
M878.149780,524.721802 
	C890.793091,528.716187 896.508118,537.437561 896.398254,552.097046 
	C896.262146,570.260376 886.707520,579.851868 868.556641,580.000610 
	C862.735901,580.048279 856.914551,580.008057 850.750000,580.008057 
	C850.750000,561.159485 850.750000,542.612915 850.750000,522.976379 
	C859.971741,523.531494 868.866760,524.066956 878.149780,524.721802 
M880.839844,571.579590 
	C889.276123,565.277527 892.121094,549.022156 886.669128,538.272827 
	C882.647522,530.343628 868.946472,526.468689 857.390869,529.959778 
	C857.390869,544.557617 857.390869,559.137024 857.390869,575.175171 
	C865.289368,574.054504 872.723267,572.999756 880.839844,571.579590 
z"/>
<path fill="#FF5B5B" opacity="1.000000" stroke="none" 
	d="
M774.400146,570.933105 
	C774.400391,554.992676 774.400391,539.542847 774.400391,524.202148 
	C783.750427,524.202148 792.552551,523.648560 801.244080,524.390442 
	C807.371277,524.913452 811.263794,530.001953 812.036255,535.913757 
	C813.019653,543.438721 810.860413,547.967163 804.679749,551.344971 
	C803.841187,551.803284 803.004883,552.265747 801.868713,552.890564 
	C810.609680,559.715088 810.221985,570.351379 814.475037,579.357300 
	C809.749329,580.727844 806.871948,580.346436 805.810852,575.166504 
	C804.948242,570.955200 803.307800,566.893738 801.892273,562.807373 
	C799.739136,556.591797 797.404053,554.931763 790.865234,554.825562 
	C787.876831,554.777039 784.887024,554.817383 781.358154,554.817383 
	C781.358154,563.149292 781.358154,571.223328 781.358154,579.647949 
	C778.932312,579.647949 777.035950,579.647949 774.399902,579.647949 
	C774.399902,576.951172 774.399902,574.187378 774.400146,570.933105 
M804.845276,535.263733 
	C802.876099,533.438782 801.115051,530.406921 798.897095,530.024292 
	C793.169189,529.036255 787.239441,529.218445 781.398193,528.933533 
	C781.398193,536.146484 781.398193,542.366272 781.398193,549.002747 
	C785.467407,549.002747 789.245300,549.012085 793.023254,549.000977 
	C803.011658,548.971619 805.567139,546.210510 804.845276,535.263733 
z"/>
<path fill="#FF5757" opacity="1.000000" stroke="none" 
	d="
M826.872925,529.097473 
	C826.955322,527.146667 827.037781,525.686218 827.134583,523.970215 
	C829.143738,523.970215 830.882263,523.970215 833.299377,523.970215 
	C833.299377,533.416992 833.299377,542.683594 833.299377,551.950195 
	C833.299377,561.082520 833.299377,570.214844 833.299377,579.758240 
	C831.185425,579.854065 829.427185,579.933777 826.872864,580.049622 
	C826.872864,563.063904 826.872864,546.325867 826.872925,529.097473 
z"/>
<path fill="#FEFFFE" opacity="1.000000" stroke="none" 
	d="
M1035.941650,214.549225 
	C1035.944702,220.973679 1036.518921,227.034439 1035.731689,232.912872 
	C1034.116577,244.972458 1026.450073,251.770538 1015.210510,252.100830 
	C1001.769226,252.495819 993.904785,247.145309 991.974487,234.096283 
	C990.788818,226.081284 991.131165,217.452744 992.760620,209.504242 
	C994.927734,198.933090 1002.728333,194.428619 1014.515930,194.690079 
	C1025.388062,194.931229 1032.234985,200.123215 1034.973755,210.223465 
	C1035.321411,211.505753 1035.590820,212.809296 1035.941650,214.549225 
z"/>
<path fill="#FEFFFE" opacity="1.000000" stroke="none" 
	d="
M1103.660156,209.899811 
	C1101.926758,220.796036 1098.348267,223.878967 1087.671509,223.968658 
	C1082.693359,224.010483 1077.714722,223.975815 1072.349854,223.975815 
	C1072.349854,214.339050 1072.349854,204.966827 1072.349854,195.248093 
	C1079.274780,195.248093 1086.253784,194.691193 1093.100586,195.403687 
	C1100.041626,196.125946 1102.328369,199.834427 1103.660156,209.899811 
z"/>
<path fill="#FFFBFB" opacity="1.000000" stroke="none" 
	d="
M731.227539,574.627686 
	C728.740234,574.639648 726.713806,574.896118 726.777527,571.754761 
	C726.901245,565.657349 726.813721,559.555664 726.813721,553.067810 
	C733.549255,553.067810 739.826050,552.721130 746.044983,553.171936 
	C751.526306,553.569214 754.497253,557.674561 754.568481,563.606873 
	C754.639404,569.510620 751.715027,573.401428 746.098755,574.021851 
	C741.332825,574.548279 736.497925,574.450073 731.227539,574.627686 
z"/>
<path fill="#FFFDFD" opacity="1.000000" stroke="none" 
	d="
M726.812866,538.983276 
	C726.812805,535.534851 726.812805,532.573669 726.812805,529.166382 
	C732.536621,529.166382 737.838684,528.845032 743.083191,529.256409 
	C748.354614,529.669983 751.123291,533.277466 750.934509,538.397827 
	C750.750977,543.375977 747.579224,546.740723 742.417725,547.032593 
	C738.431580,547.258057 734.424683,547.130188 730.427002,547.129822 
	C729.451172,547.129761 728.475342,547.013550 726.812988,546.906555 
	C726.812988,544.327637 726.812988,541.899109 726.812866,538.983276 
z"/>
<path fill="#FFFDFD" opacity="1.000000" stroke="none" 
	d="
M880.498535,571.762329 
	C872.723267,572.999756 865.289368,574.054504 857.390869,575.175171 
	C857.390869,559.137024 857.390869,544.557617 857.390869,529.959778 
	C868.946472,526.468689 882.647522,530.343628 886.669128,538.272827 
	C892.121094,549.022156 889.276123,565.277527 880.498535,571.762329 
z"/>
<path fill="#FFFBFB" opacity="1.000000" stroke="none" 
	d="
M804.918091,535.676086 
	C805.567139,546.210510 803.011658,548.971619 793.023254,549.000977 
	C789.245300,549.012085 785.467407,549.002747 781.398193,549.002747 
	C781.398193,542.366272 781.398193,536.146484 781.398193,528.933533 
	C787.239441,529.218445 793.169189,529.036255 798.897095,530.024292 
	C801.115051,530.406921 802.876099,533.438782 804.918091,535.676086 
z"/>
</svg>